<svg width="680" height="395" viewBox="0 0 680 395" xmlns="http://www.w3.org/2000/svg" role="img" aria-label="Pattern Strategy e Factory per i motori di correzione">
<defs>
<marker id="arrow" viewBox="0 0 10 10" refX="8" refY="5" markerWidth="6" markerHeight="6" orient="auto-start-reverse"><path d="M2 1L8 5L2 9" fill="none" stroke="#73726c" stroke-width="1.5" stroke-linecap="round" stroke-linejoin="round"/></marker>
<style>
text{font-family:system-ui,-apple-system,"Segoe UI",Roboto,sans-serif}
.title{font-size:14px;font-weight:500}
.sub{font-size:12px}
.bx-gray{fill:#F1EFE8;stroke:#5F5E5A;stroke-width:.5}
.bx-teal{fill:#E1F5EE;stroke:#0F6E56;stroke-width:.5}
.tg-t{fill:#444441}.tg-s{fill:#5F5E5A}
.tt-t{fill:#085041}.tt-s{fill:#0F6E56}
.lbl{fill:#5F5E5A;font-size:12px}
.ln{stroke:#73726c;stroke-width:1.5;fill:none}
.ld{stroke:#888780;stroke-width:.8;stroke-dasharray:4 4;fill:none}
@media (prefers-color-scheme:dark){
.bx-gray{fill:#3a3a38;stroke:#B4B2A9}
.bx-teal{fill:#0b5e4a;stroke:#5DCAA5}
.tg-t{fill:#F1EFE8}.tg-s{fill:#D3D1C7}
.tt-t{fill:#E1F5EE}.tt-s{fill:#9FE1CB}
.lbl{fill:#B4B2A9}.ln{stroke:#9c9a92}.ld{stroke:#9c9a92}
}
</style>
</defs>
<rect class="bx-gray" x="70" y="40" width="190" height="56" rx="8"/>
<text class="title tg-t" x="165" y="64" text-anchor="middle" dominant-baseline="central">GradingService</text>
<text class="sub tg-s" x="165" y="82" text-anchor="middle" dominant-baseline="central">client (usa il motore)</text>
<rect class="bx-gray" x="420" y="40" width="190" height="56" rx="8"/>
<text class="title tg-t" x="515" y="64" text-anchor="middle" dominant-baseline="central">EngineFactory</text>
<text class="sub tg-s" x="515" y="82" text-anchor="middle" dominant-baseline="central">create(config)</text>
<text class="lbl" x="340" y="60" text-anchor="middle">crea</text>
<line class="ln" x1="260" y1="68" x2="414" y2="68" marker-end="url(#arrow)"/>
<text class="lbl" x="196" y="132" text-anchor="start">usa</text>
<line class="ln" x1="165" y1="96" x2="296" y2="168" marker-end="url(#arrow)"/>
<text class="lbl" x="468" y="132" text-anchor="start">restituisce</text>
<line class="ln" x1="515" y1="96" x2="404" y2="168" marker-end="url(#arrow)"/>
<rect class="bx-teal" x="230" y="170" width="220" height="56" rx="8"/>
<text class="title tt-t" x="340" y="194" text-anchor="middle" dominant-baseline="central">GradingEngine</text>
<text class="sub tt-s" x="340" y="212" text-anchor="middle" dominant-baseline="central">«interfaccia» · grade()</text>
<line class="ld" x1="310" y1="226" x2="120" y2="290"/>
<line class="ld" x1="328" y1="226" x2="258" y2="290"/>
<line class="ld" x1="352" y1="226" x2="402" y2="290"/>
<line class="ld" x1="372" y1="226" x2="548" y2="290"/>
<rect class="bx-teal" x="55" y="290" width="130" height="56" rx="8"/>
<text class="title tt-t" x="120" y="314" text-anchor="middle" dominant-baseline="central">OpenAIEngine</text>
<text class="sub tt-s" x="120" y="332" text-anchor="middle" dominant-baseline="central">GPT (cloud)</text>
<rect class="bx-teal" x="193" y="290" width="130" height="56" rx="8"/>
<text class="title tt-t" x="258" y="314" text-anchor="middle" dominant-baseline="central">ClaudeEngine</text>
<text class="sub tt-s" x="258" y="332" text-anchor="middle" dominant-baseline="central">Claude (cloud)</text>
<rect class="bx-teal" x="337" y="290" width="130" height="56" rx="8"/>
<text class="title tt-t" x="402" y="314" text-anchor="middle" dominant-baseline="central">LocalEngine</text>
<text class="sub tt-s" x="402" y="332" text-anchor="middle" dominant-baseline="central">on-premise</text>
<rect class="bx-teal" x="483" y="290" width="130" height="56" rx="8" style="stroke-width:1.2"/>
<text class="title tt-t" x="548" y="314" text-anchor="middle" dominant-baseline="central">FakeEngine</text>
<text class="sub tt-s" x="548" y="332" text-anchor="middle" dominant-baseline="central">demo (finto)</text>
<text class="lbl" x="40" y="374" text-anchor="start">Tratteggio = realizza l'interfaccia (Strategy). FakeEngine = motore demo.</text>
</svg>
